HIERARCHY
ROOT hip
{
	OFFSET 0.000000 0.000000 0.000000 
	CHANNELS 6 Xposition Yposition Zposition Xrotation Zrotation Yrotation
	JOINT abdomen
	{
		OFFSET 0.000000 3.402643 0.000000 
		CHANNELS 3 Xrotation Zrotation Yrotation
		JOINT chest
		{
			OFFSET 0.000000 8.438565 -0.680529 
			CHANNELS 3 Xrotation Zrotation Yrotation
			JOINT neck
			{
				OFFSET 0.000000 10.207942 -0.272212 
				CHANNELS 3 Xrotation Zrotation Yrotation
				JOINT head
				{
					OFFSET 0.000000 3.130431 0.000000 
					CHANNELS 3 Xrotation Zrotation Yrotation
					End Site
					{
						OFFSET 0.000000 3.130435 0.000000 
					}
				}
			}
			JOINT lCollar
			{
				OFFSET 3.470700 6.669187 -0.816635 
				CHANNELS 3 Yrotation Zrotation Xrotation
				JOINT lShldr
				{
					OFFSET 3.198488 0.000000 0.000000 
					CHANNELS 3 Zrotation Yrotation Xrotation
					JOINT lForeArm
					{
						OFFSET 10.139888 0.000000 0.000000 
						CHANNELS 3 Yrotation Zrotation Xrotation
						JOINT lHand
						{
							OFFSET 8.370511 0.000000 0.000000 
							CHANNELS 3 Zrotation Yrotation Xrotation
							End Site
							{
								OFFSET 4.083176 0.000000 0.000000 
							}
						}
					}
				}
			}
			JOINT rCollar
			{
				OFFSET -3.470700 6.669187 -0.816635 
				CHANNELS 3 Yrotation Zrotation Xrotation
				JOINT rShldr
				{
					OFFSET -3.198488 0.000000 0.000000 
					CHANNELS 3 Zrotation Yrotation Xrotation
					JOINT rForeArm
					{
						OFFSET -10.139888 0.000000 0.000000 
						CHANNELS 3 Yrotation Zrotation Xrotation
						JOINT rHand
						{
							OFFSET -8.370511 0.000000 0.000000 
							CHANNELS 3 Zrotation Yrotation Xrotation
							End Site
							{
								OFFSET -4.083176 0.000000 0.000000 
							}
						}
					}
				}
			}
		}
	}
	JOINT lThigh
	{
		OFFSET 5.308129 -1.633274 1.361059 
		CHANNELS 3 Xrotation Zrotation Yrotation
		JOINT lShin
		{
			OFFSET -2.041588 -20.007561 0.000000 
			CHANNELS 3 Xrotation Zrotation Yrotation
			JOINT lFoot
			{
				OFFSET 0.000000 -19.190928 -1.224953 
				CHANNELS 3 Xrotation Yrotation Zrotation
				End Site
				{
					OFFSET 0.000000 -2.449906 4.627600 
				}
			}
		}
	}
	JOINT rThigh
	{
		OFFSET -5.308129 -1.633274 1.361059 
		CHANNELS 3 Xrotation Zrotation Yrotation
		JOINT rShin
		{
			OFFSET 2.041588 -20.007561 0.000000 
			CHANNELS 3 Xrotation Zrotation Yrotation
			JOINT rFoot
			{
				OFFSET 0.000000 -19.190928 -1.224953 
				CHANNELS 3 Xrotation Yrotation Zrotation
				End Site
				{
					OFFSET 0.000000 -2.449906 4.627600 
				}
			}
		}
	}
}
MOTION
Frames: 9
Frame Time: 0.033333
41.871174 46.495056 65.266861 -22.119482 28.590883 -52.706188 37.053722 -8.288679 17.926704 -20.839844 0.000000 0.000000 17.505444 -20.382296 37.789459 -2.520846 -1.255050 0.218350 -4.754609 -0.109183 -0.002653 -104.075371 31.061487 -23.503551 -96.741241 -4.270070 17.892061 -24.332108 -20.689825 32.798859 4.754609 0.109183 -0.002672 53.212318 14.149101 5.596973 96.402199 28.791559 10.649596 -0.862812 19.980900 20.310144 -51.506058 3.426517 4.711259 66.716492 -7.876842 -9.183495 16.508467 -13.503875 -17.826441 -23.974569 -43.091087 -24.211853 39.781528 11.573444 -6.261222 -19.475891 1.710227 -6.555624 
43.427113 47.139805 65.427795 -24.737576 33.907162 -53.212582 36.106754 -8.344721 14.220939 -20.839844 0.000000 0.000000 17.201143 -22.764467 37.633106 -2.520846 -1.255050 0.218350 -4.754609 -0.109183 -0.002653 -102.352798 28.049324 -21.465092 -100.506721 -3.200849 18.131672 -22.424492 -22.720226 33.492722 4.754609 0.109183 -0.002672 54.319092 7.579973 2.598652 92.229301 25.854538 12.387711 1.870898 19.727852 20.245695 -60.614540 9.638525 4.337271 81.195023 -6.355972 -9.976172 10.401212 -10.683043 -16.991049 -29.844147 -48.721165 -22.815805 36.829800 10.192528 -6.264580 -16.864841 1.272051 -9.656320 
44.628490 47.748005 65.580093 -28.210920 38.604279 -54.369968 34.911320 -8.942902 9.089861 -20.839844 0.000000 0.000000 17.048069 -23.782446 39.210068 -2.520846 -1.255050 0.218350 -4.754609 -0.109183 -0.002653 -99.064110 26.706808 -19.738216 -103.032082 -4.037295 17.394249 -22.621538 -23.416794 33.086006 4.754609 0.109183 -0.002672 56.049664 0.864036 -0.052142 89.157227 23.377195 12.982675 5.554563 19.453144 19.820818 -65.694519 17.301895 2.824472 89.893883 -4.023838 -9.850454 4.642907 -8.366442 -15.569406 -34.794353 -53.556747 -21.032713 33.064243 8.797944 -6.483219 -14.343855 0.286934 -12.407907 
45.522663 48.156185 65.911606 -32.332809 42.552406 -56.781242 33.608006 -10.487470 4.019862 -20.839844 0.000000 0.000000 16.270683 -23.728285 42.163376 -2.520846 -1.255050 0.218350 -4.754609 -0.109183 -0.002653 -95.744896 27.807762 -18.914995 -106.426865 -6.316009 17.223700 -25.046049 -24.965900 35.187080 4.754609 0.109183 -0.002672 57.678856 -4.984967 -1.794630 87.656807 22.292349 13.249804 8.021479 19.544895 19.837372 -66.483978 25.839876 0.837342 91.509399 -1.396811 -9.360106 0.273063 -7.172413 -15.387952 -39.306408 -57.420101 -18.618727 28.891167 7.365858 -6.528733 -13.406458 -0.811286 -14.809153 
46.241795 48.415089 66.438583 -36.708336 45.901539 -60.894711 32.028645 -12.868429 0.578976 -20.839844 0.000000 0.000000 14.841400 -23.836205 45.399303 -2.520846 -1.255050 0.218350 -4.754609 -0.109183 -0.002653 -93.658279 30.355673 -18.819586 -110.671455 -8.821583 17.137493 -27.631899 -26.823313 38.435902 4.754609 0.109183 -0.002672 58.582123 -10.051378 -2.633402 88.504112 22.775043 12.651633 9.293139 19.689903 19.619461 -63.073948 34.617901 -0.034895 86.510689 0.674040 -8.056702 -3.604225 -4.899893 -15.045958 -44.930187 -60.532490 -15.239088 24.633265 6.165282 -5.580155 -10.401057 -1.168885 -13.027645 
46.851318 48.613094 67.082314 -41.707413 48.370636 -66.826874 30.499861 -15.629725 -1.044950 -20.839844 0.000000 0.000000 13.527951 -24.625834 48.190498 -2.520846 -1.255050 0.218350 -4.754609 -0.109183 -0.002653 -93.716736 33.228039 -19.882948 -114.475616 -10.120262 15.507667 -29.128111 -28.526308 38.774849 4.754609 0.109183 -0.002672 58.585812 -14.222264 -2.974560 90.692223 23.981579 11.831856 9.906900 19.619757 19.776209 -54.021179 42.586010 2.375054 76.319496 1.271077 -5.788445 -6.482430 -1.110163 -11.191301 -50.016514 -63.087963 -13.997746 19.582916 5.774549 -5.365642 -6.506690 1.660137 -10.105559 
47.499214 48.802967 67.919479 -46.932858 49.474880 -73.906670 29.397858 -18.070366 -1.407549 -20.839844 0.000000 0.000000 12.637092 -25.656403 50.681660 -2.520846 -1.255050 0.218350 -4.754609 -0.109183 -0.002653 -95.094208 35.449619 -22.161320 -115.537277 -9.629904 11.882352 -29.201694 -30.438841 33.770939 4.754609 0.109183 -0.002672 57.875416 -17.464863 -3.302964 92.877243 24.887562 11.629404 9.345958 20.015768 20.813387 -38.574463 47.919884 8.948586 62.879868 0.969135 -3.491024 -7.820107 2.594163 -6.454986 -53.036434 -65.142708 -14.100103 13.385544 7.292957 -6.222917 -3.171129 4.490530 -7.690665 
48.169762 48.982685 68.840919 -50.904282 49.576519 -80.482811 28.423449 -19.307936 -1.238502 -20.839844 0.000000 0.000000 12.150351 -26.673969 52.877155 -2.520846 -1.255050 0.218350 -4.754609 -0.109183 -0.002653 -96.759407 36.590084 -23.189840 -115.765656 -9.871185 9.804532 -30.727173 -30.051886 31.088234 4.754609 0.109183 -0.002672 56.377480 -20.115841 -4.052995 95.316658 24.956593 11.040917 7.848203 20.574041 21.303482 -19.414261 49.721394 18.003014 47.340218 0.181454 -2.248765 -7.986417 4.766249 -3.778892 -53.710079 -65.425400 -14.422583 6.070117 8.936521 -7.363271 -0.742234 5.429737 -5.715044 
48.743839 49.060871 69.673012 -53.309357 49.564892 -84.792198 27.338135 -19.061441 -1.730569 -20.839844 0.000000 0.000000 11.987529 -27.269470 54.568493 -2.520846 -1.255050 0.218350 -4.754609 -0.109183 -0.002653 -97.984566 37.590603 -24.040449 -115.451317 -10.200439 8.318985 -31.979765 -30.105217 29.289740 4.754609 0.109183 -0.002672 54.630421 -23.184044 -5.754647 98.422409 23.650904 9.649786 6.651788 21.233784 20.823427 -1.867424 48.297352 25.954607 30.519154 -1.172782 -1.889752 -6.535011 4.979466 -2.807688 -50.419441 -64.117584 -16.211819 -3.902483 8.688393 -8.264198 4.676793 5.123642 -5.722381 
